Coordinates
version=1
nRows=8
nColumns=46
inDegrees=yes

Units are S.I. units (second, meters, Newtons, ...)
Angles are in degrees.

endheader
time	pelvis_tilt	pelvis_list	pelvis_rotation	pelvis_tx	pelvis_ty	pelvis_tz	bb_angle	bb_tx	bb_ty	bb_tz	hip_flexion_r	hip_adduction_r	hip_rotation_r	knee_angle_r	knee_angle_r_beta	ankle_angle_r	subtalar_angle_r	mtp_angle_r	crank_angle_r	hip_flexion_l	hip_adduction_l	hip_rotation_l	knee_angle_l	knee_angle_l_beta	ankle_angle_l	subtalar_angle_l	mtp_angle_l	crank_angle_l	lumbar_extension	lumbar_bending	lumbar_rotation	arm_flex_r	arm_add_r	arm_rot_r	elbow_flex_r	pro_sup_r	wrist_flex_r	wrist_dev_r	arm_flex_l	arm_add_l	arm_rot_l	elbow_flex_l	pro_sup_l	wrist_flex_l	wrist_dev_l
      7.50500000	    -35.43881320	      3.64768791	     -6.65111838	      0.34915653	      1.11677723	     -0.22069594	      0.00000000	      0.50000000	      0.00000000	      0.25000000	     56.95944622	     -2.54607987	      1.15379914	     32.31604070	      0.56402131	    -13.43262961	     -4.65617387	      0.00000000	      0.00000000	     58.03678977	     -5.43154326	     -3.78056551	     75.68571796	      1.32096498	    -27.62299020	    -14.59485218	      0.00000000	      0.00000000	    -57.02004832	     -2.35730878	     -5.43607556	     56.02794161	    -13.13565848	     26.08814894	     96.18758524	     53.29947535	      0.00000000	      0.00000000	     36.83507075	    -28.13407240	      1.29044386	    107.37048727	     51.96761614	      0.00000000	      0.00000000
      7.51000000	    -35.68709363	      4.28567129	     -5.93132937	      0.34951278	      1.11340468	     -0.22041634	      0.00000000	      0.50000000	      0.00000000	      0.25000000	     55.69564370	     -3.49183715	      0.99540624	     29.70731288	      0.51849042	    -14.90968131	     -4.33586091	      0.00000000	      0.00000000	     59.88158945	     -5.00252974	     -3.93752703	     78.71919274	      1.37390910	    -25.53642810	    -13.42650545	      0.00000000	      0.00000000	    -56.74612083	     -2.66114432	     -5.72717197	     54.80131717	    -13.65466195	     25.15200779	     97.79322348	     53.46164508	      0.00000000	      0.00000000	     37.11828171	    -28.55785150	      2.37749024	    107.91700211	     52.18197016	      0.00000000	      0.00000000
      7.51500000	    -35.84419656	      5.37814994	     -5.20911324	      0.34990164	      1.11017197	     -0.22058455	      0.00000000	      0.50000000	      0.00000000	      0.25000000	     54.63897170	     -4.89910368	      0.89244235	     27.49453022	      0.47987008	    -16.25967448	     -3.36917960	      0.00000000	      0.00000000	     61.57404767	     -4.14621669	     -4.57208995	     81.46973678	      1.42191515	    -24.22497687	    -13.52008634	      0.00000000	      0.00000000	    -56.45675610	     -3.21729824	     -6.68519983	     54.26453954	    -14.01900964	     24.85431950	     98.17566404	     53.48683275	      0.00000000	      0.00000000	     37.45353084	    -28.66738136	      2.71531186	    108.00506809	     52.22242316	      0.00000000	      0.00000000
      7.52000000	    -36.16270597	      6.04610856	     -4.43802786	      0.35039353	      1.10666017	     -0.22020728	      0.00000000	      0.50000000	      0.00000000	      0.25000000	     53.51739166	     -5.90988142	      0.64315703	     25.11380159	      0.43831853	    -17.89070705	     -3.03270407	      0.00000000	      0.00000000	     63.53371370	     -3.70672919	     -4.77161712	     84.27690284	      1.47090944	    -22.57800872	    -12.17444860	      0.00000000	      0.00000000	    -56.12881817	     -3.93010462	     -4.67170305	     50.53444571	    -17.41071924	     21.23233830	    103.20440418	     53.86380077	      0.00000000	      0.00000000	     41.16445171	    -27.03091603	      8.04623565	    105.68926770	     52.37513427	      0.00000000	      0.00000000
      7.52500000	    -36.36350427	      6.93905333	     -3.81260374	      0.35064666	      1.10326886	     -0.21981461	      0.00000000	      0.50000000	      0.00000000	      0.25000000	     52.52838483	     -7.08665973	      0.23136099	     23.06056510	      0.40248279	    -19.77763774	     -2.26184165	      0.00000000	      0.00000000	     65.34927314	     -3.18083557	     -5.23879999	     86.93606141	      1.51732051	    -21.27033955	    -11.50051693	      0.00000000	      0.00000000	    -55.82877502	     -4.51568605	     -5.53684676	     49.84875385	    -17.80656465	     20.93964804	    103.59954119	     53.88492742	      0.00000000	      0.00000000	     41.20767812	    -27.44008392	      8.60463711	    106.04792462	     52.48676991	      0.00000000	      0.00000000
      7.53000000	    -36.52246409	      7.90925155	     -3.02076284	      0.35128068	      1.10006446	     -0.21958552	      0.00000000	      0.50000000	      0.00000000	      0.25000000	     51.44538246	     -8.45747132	     -0.20313455	     21.09709525	      0.36821377	    -21.24150625	     -1.42016459	      0.00000000	      0.00000000	     67.06346648	     -2.43806609	     -5.75315408	     89.40238250	      1.56036593	    -20.06555118	    -11.30566308	      0.00000000	      0.00000000	    -55.57009792	     -5.00694442	     -6.54151911	     49.27791283	    -18.21369457	     20.70168472	    103.80602564	     53.88885294	      0.00000000	      0.00000000	     41.38432124	    -27.62207190	      8.98658896	    106.24659121	     52.55122956	      0.00000000	      0.00000000
      7.53500000	    -36.73408508	      8.73253204	     -2.18016788	      0.35200324	      1.09687793	     -0.21932449	      0.00000000	      0.50000000	      0.00000000	      0.25000000	     50.31349386	     -9.76592865	     -0.93730236	     19.04808946	      0.33245188	    -22.95542682	     -0.42371354	      0.00000000	      0.00000000	     68.83460702	     -1.82118795	     -6.15886662	     91.74304897	      1.60121827	    -18.98273049	    -10.71595694	      0.00000000	      0.00000000	    -55.26934895	     -5.40075595	     -7.38817487	     48.44457723	    -18.74683393	     20.46360761	    104.08140327	     53.91067596	      0.00000000	      0.00000000	     41.49966927	    -27.99796831	      9.58029180	    106.56207576	     52.65992431	      0.00000000	      0.00000000
      7.54000000	    -36.97534084	      9.36699254	     -1.31812858	      0.35261409	      1.09350374	     -0.21884720	      0.00000000	      0.50000000	      0.00000000	      0.25000000	     49.15057901	    -10.90379526	     -1.76737238	     17.04789947	      0.29754198	    -24.72556797	      0.27925206	      0.00000000	      0.00000000	     70.67594430	     -1.40787609	     -6.34689038	     94.04019085	      1.64131096	    -17.61660489	     -9.29254005	      0.00000000	      0.00000000	    -55.21293626	     -5.94748065	     -7.18429931	     45.95835758	    -20.93854347	     18.87768904	    107.13345976	     54.22211278	      0.00000000	      0.00000000	     42.95164073	    -28.77478785	     13.24626340	    107.16371458	     53.10854413	      0.00000000	      0.00000000
